<svg xmlns="http://www.w3.org/2000/svg" xmlns:xlink="http://www.w3.org/1999/xlink" width="100" zoomAndPan="magnify" viewBox="0 0 75 30.000001" height="40" preserveAspectRatio="xMidYMid meet" version="1.0"><defs><g/></defs><g fill="#5295b6" fill-opacity="1"><g transform="translate(3.25499, 19.449024)"><g><path d="M 6.5625 -9.546875 L 6.5625 -2.46875 C 6.5625 -2.070312 6.492188 -1.707031 6.359375 -1.375 C 6.222656 -1.050781 6.03125 -0.773438 5.78125 -0.546875 C 5.53125 -0.316406 5.226562 -0.140625 4.875 -0.015625 C 4.53125 0.109375 4.15625 0.171875 3.75 0.171875 C 3.019531 0.171875 2.414062 -0.015625 1.9375 -0.390625 C 1.46875 -0.773438 1.160156 -1.3125 1.015625 -2 L 2.109375 -2.234375 C 2.148438 -2.035156 2.207031 -1.851562 2.28125 -1.6875 C 2.363281 -1.519531 2.46875 -1.375 2.59375 -1.25 C 2.726562 -1.125 2.890625 -1.023438 3.078125 -0.953125 C 3.273438 -0.878906 3.507812 -0.84375 3.78125 -0.84375 C 4.289062 -0.84375 4.691406 -0.988281 4.984375 -1.28125 C 5.273438 -1.582031 5.421875 -2.050781 5.421875 -2.6875 L 5.421875 -8.546875 L 1.96875 -8.546875 L 1.96875 -9.546875 Z M 6.5625 -9.546875 "/></g></g></g><g fill="#5295b6" fill-opacity="1"><g transform="translate(11.868071, 19.449024)"><g><path d="M 5.765625 -1.15625 L 5.71875 -1.15625 C 5.644531 -0.976562 5.550781 -0.804688 5.4375 -0.640625 C 5.332031 -0.484375 5.195312 -0.347656 5.03125 -0.234375 C 4.875 -0.117188 4.6875 -0.0234375 4.46875 0.046875 C 4.25 0.128906 3.992188 0.171875 3.703125 0.171875 C 2.960938 0.171875 2.367188 -0.0625 1.921875 -0.53125 C 1.484375 -1.007812 1.265625 -1.675781 1.265625 -2.53125 L 1.265625 -7.0625 L 2.359375 -7.0625 L 2.359375 -2.71875 C 2.359375 -2.070312 2.5 -1.59375 2.78125 -1.28125 C 3.0625 -0.96875 3.472656 -0.8125 4.015625 -0.8125 C 4.234375 -0.8125 4.445312 -0.835938 4.65625 -0.890625 C 4.875 -0.941406 5.0625 -1.019531 5.21875 -1.125 C 5.382812 -1.238281 5.515625 -1.378906 5.609375 -1.546875 C 5.710938 -1.722656 5.765625 -1.925781 5.765625 -2.15625 L 5.765625 -7.0625 L 6.859375 -7.0625 L 6.859375 0 L 5.765625 0 Z M 5.765625 -1.15625 "/></g></g></g><g fill="#5295b6" fill-opacity="1"><g transform="translate(20.481152, 19.449024)"><g><path d="M 1.09375 -0.9375 L 3.5625 -0.9375 L 3.5625 -9.1875 L 1.09375 -9.1875 L 1.09375 -10.125 L 4.65625 -10.125 L 4.65625 -0.9375 L 7.109375 -0.9375 L 7.109375 0 L 1.09375 0 Z M 1.09375 -0.9375 "/></g></g></g><g fill="#5295b6" fill-opacity="1"><g transform="translate(29.094234, 19.449024)"><g><path d="M 4.546875 -8.609375 C 4.222656 -8.609375 3.992188 -8.675781 3.859375 -8.8125 C 3.734375 -8.945312 3.671875 -9.113281 3.671875 -9.3125 L 3.671875 -9.53125 C 3.671875 -9.726562 3.734375 -9.894531 3.859375 -10.03125 C 3.992188 -10.164062 4.222656 -10.234375 4.546875 -10.234375 C 4.859375 -10.234375 5.078125 -10.164062 5.203125 -10.03125 C 5.335938 -9.894531 5.40625 -9.726562 5.40625 -9.53125 L 5.40625 -9.3125 C 5.40625 -9.113281 5.335938 -8.945312 5.203125 -8.8125 C 5.078125 -8.675781 4.859375 -8.609375 4.546875 -8.609375 Z M 1.453125 -0.9375 L 4 -0.9375 L 4 -6.125 L 1.453125 -6.125 L 1.453125 -7.0625 L 5.09375 -7.0625 L 5.09375 -0.9375 L 7.46875 -0.9375 L 7.46875 0 L 1.453125 0 Z M 1.453125 -0.9375 "/></g></g></g><g fill="#5295b6" fill-opacity="1"><g transform="translate(37.707315, 19.449024)"><g><path d="M 6.765625 0 C 6.335938 0 6.03125 -0.109375 5.84375 -0.328125 C 5.664062 -0.546875 5.554688 -0.820312 5.515625 -1.15625 L 5.4375 -1.15625 C 5.28125 -0.738281 5.03125 -0.410156 4.6875 -0.171875 C 4.351562 0.0546875 3.898438 0.171875 3.328125 0.171875 C 2.585938 0.171875 2 -0.0195312 1.5625 -0.40625 C 1.125 -0.789062 0.90625 -1.316406 0.90625 -1.984375 C 0.90625 -2.640625 1.144531 -3.144531 1.625 -3.5 C 2.101562 -3.851562 2.875 -4.03125 3.9375 -4.03125 L 5.4375 -4.03125 L 5.4375 -4.734375 C 5.4375 -5.253906 5.289062 -5.644531 5 -5.90625 C 4.707031 -6.164062 4.296875 -6.296875 3.765625 -6.296875 C 3.285156 -6.296875 2.894531 -6.203125 2.59375 -6.015625 C 2.289062 -5.828125 2.050781 -5.570312 1.875 -5.25 L 1.140625 -5.796875 C 1.222656 -5.984375 1.34375 -6.160156 1.5 -6.328125 C 1.65625 -6.503906 1.847656 -6.65625 2.078125 -6.78125 C 2.304688 -6.914062 2.566406 -7.019531 2.859375 -7.09375 C 3.148438 -7.175781 3.472656 -7.21875 3.828125 -7.21875 C 4.660156 -7.21875 5.316406 -7.007812 5.796875 -6.59375 C 6.285156 -6.175781 6.53125 -5.59375 6.53125 -4.84375 L 6.53125 -0.953125 L 7.515625 -0.953125 L 7.515625 0 Z M 3.515625 -0.75 C 3.796875 -0.75 4.050781 -0.78125 4.28125 -0.84375 C 4.519531 -0.914062 4.722656 -1.007812 4.890625 -1.125 C 5.066406 -1.238281 5.203125 -1.375 5.296875 -1.53125 C 5.390625 -1.695312 5.4375 -1.867188 5.4375 -2.046875 L 5.4375 -3.21875 L 3.9375 -3.21875 C 3.28125 -3.21875 2.800781 -3.125 2.5 -2.9375 C 2.195312 -2.757812 2.046875 -2.492188 2.046875 -2.140625 L 2.046875 -1.859375 C 2.046875 -1.492188 2.175781 -1.21875 2.4375 -1.03125 C 2.695312 -0.84375 3.054688 -0.75 3.515625 -0.75 Z M 3.515625 -0.75 "/></g></g></g><g fill="#5295b6" fill-opacity="1"><g transform="translate(46.320398, 19.449024)"><g><path d="M 1.34375 0 L 1.34375 -7.0625 L 2.4375 -7.0625 L 2.4375 -5.90625 L 2.484375 -5.90625 C 2.554688 -6.082031 2.644531 -6.25 2.75 -6.40625 C 2.863281 -6.5625 3 -6.695312 3.15625 -6.8125 C 3.320312 -6.9375 3.515625 -7.035156 3.734375 -7.109375 C 3.953125 -7.179688 4.207031 -7.21875 4.5 -7.21875 C 5.238281 -7.21875 5.832031 -6.984375 6.28125 -6.515625 C 6.726562 -6.046875 6.953125 -5.382812 6.953125 -4.53125 L 6.953125 0 L 5.859375 0 L 5.859375 -4.328125 C 5.859375 -4.984375 5.710938 -5.46875 5.421875 -5.78125 C 5.140625 -6.09375 4.726562 -6.25 4.1875 -6.25 C 3.96875 -6.25 3.753906 -6.21875 3.546875 -6.15625 C 3.335938 -6.101562 3.148438 -6.019531 2.984375 -5.90625 C 2.816406 -5.800781 2.679688 -5.660156 2.578125 -5.484375 C 2.484375 -5.316406 2.4375 -5.117188 2.4375 -4.890625 L 2.4375 0 Z M 1.34375 0 "/></g></g></g><g fill="#e3caab" fill-opacity="1"><g transform="translate(54.929929, 19.449024)"><g><path d="M 4.109375 0.125 C 3.734375 0.125 3.46875 0.046875 3.3125 -0.109375 C 3.164062 -0.265625 3.09375 -0.460938 3.09375 -0.703125 L 3.09375 -0.9375 C 3.09375 -1.175781 3.164062 -1.375 3.3125 -1.53125 C 3.46875 -1.6875 3.734375 -1.765625 4.109375 -1.765625 C 4.472656 -1.765625 4.726562 -1.6875 4.875 -1.53125 C 5.03125 -1.375 5.109375 -1.175781 5.109375 -0.9375 L 5.109375 -0.703125 C 5.109375 -0.460938 5.03125 -0.265625 4.875 -0.109375 C 4.726562 0.046875 4.472656 0.125 4.109375 0.125 Z M 4.109375 0.125 "/></g></g></g><g fill="#8c52ff" fill-opacity="1"><g transform="translate(63.538402, 19.449024)"><g><path d="M 0.828125 2.3125 L 0.828125 1.296875 L 7.390625 1.296875 L 7.390625 2.3125 Z M 0.828125 2.3125 "/></g></g></g></svg>